<svg width="85" height="96" viewBox="0 0 85 96" fill="none" xmlns="http://www.w3.org/2000/svg">
<g filter="url(#filter0_d)">
<rect x="20" y="16.2822" width="45" height="45" rx="8" fill="#232E44"/>
<path d="M44.1084 70.8238C43.3089 71.9055 41.6911 71.9055 40.8916 70.8238L31.8663 58.6121C30.8906 57.2919 31.8331 55.4234 33.4747 55.4234L51.5253 55.4234C53.1669 55.4234 54.1094 57.2919 53.1337 58.6121L44.1084 70.8238Z" fill="#232E44"/>
<path d="M41.1187 30.2878C41.2015 29.8069 41.1194 29.3119 40.8858 28.8845C40.6522 28.457 40.2811 28.1227 39.8337 27.9366C39.3864 27.7505 38.8895 27.7238 38.4251 27.8608C37.9606 27.9979 37.5564 28.2906 37.279 28.6905L33.2345 34.5177L29.1891 28.6905C28.912 28.2902 28.5078 27.9971 28.0433 27.8598C27.5788 27.7225 27.0817 27.7491 26.6342 27.9353C26.1867 28.1215 25.8156 28.4561 25.5822 28.8839C25.3488 29.3116 25.267 29.8069 25.3504 30.2878C25.3293 30.4086 25.3182 30.5309 25.3174 30.6536V46.3988C25.3174 46.9681 25.5416 47.5142 25.9408 47.9168C26.34 48.3194 26.8814 48.5456 27.4459 48.5456C28.0104 48.5456 28.5518 48.3194 28.9509 47.9168C29.3501 47.5142 29.5744 46.9681 29.5744 46.3988V36.7322L31.4913 39.4944C31.497 39.5029 31.5036 39.5105 31.5102 39.5191C31.548 39.5715 31.5877 39.6229 31.6311 39.6724C31.6443 39.6867 31.6566 39.7029 31.6689 39.7182C31.7208 39.7747 31.7757 39.8284 31.8332 39.8791L31.887 39.922C31.9276 39.9563 31.9692 39.9906 32.0135 40.022L32.0296 40.0325L32.0863 40.0696C32.1354 40.101 32.1854 40.1306 32.2364 40.1573C32.2515 40.1658 32.2657 40.1754 32.2817 40.183C32.3482 40.2161 32.4162 40.2456 32.4857 40.2716L32.5187 40.2849C32.5893 40.3106 32.6611 40.3321 32.7341 40.3496H32.7407C32.816 40.3676 32.8923 40.3812 32.9692 40.3906H33.006C33.0813 40.3994 33.1569 40.4038 33.2327 40.404C33.3087 40.4038 33.3847 40.3994 33.4602 40.3906H33.4971C33.5739 40.3811 33.6502 40.3675 33.7256 40.3496H33.7331C33.8055 40.333 33.8768 40.3117 33.9466 40.2859L33.9806 40.2725C34.0498 40.2467 34.1175 40.2172 34.1836 40.1839C34.2005 40.1763 34.2148 40.1668 34.2299 40.1582C34.2808 40.1315 34.3299 40.102 34.38 40.0706L34.4367 40.0335L34.4527 40.023C34.4971 39.9915 34.5386 39.9573 34.5802 39.923C34.5981 39.9087 34.616 39.8954 34.6321 39.8801C34.6901 39.8297 34.7454 39.7759 34.7974 39.7192C34.8095 39.7033 34.8224 39.688 34.8361 39.6734C34.8786 39.6239 34.9192 39.5724 34.956 39.52C34.9629 39.5123 34.9693 39.504 34.9749 39.4953L36.8919 36.7332V46.3988C36.8919 46.6807 36.9469 46.9599 37.0539 47.2203C37.1609 47.4808 37.3177 47.7174 37.5153 47.9168C37.7129 48.1162 37.9476 48.2743 38.2058 48.3822C38.4641 48.4901 38.7408 48.5456 39.0203 48.5456C39.2999 48.5456 39.5766 48.4901 39.8349 48.3822C40.0932 48.2743 40.3278 48.1162 40.5255 47.9168C40.7231 47.7174 40.8799 47.4808 40.9869 47.2203C41.0938 46.9599 41.1489 46.6807 41.1489 46.3988V30.6498C41.1492 30.5285 41.1391 30.4074 41.1187 30.2878Z" fill="white"/>
<path d="M57.1953 32.6823C56.7029 32.6821 56.2217 32.5346 55.8124 32.2586C55.4031 31.9825 55.0842 31.5902 54.8961 31.1313C54.7078 30.6724 54.6588 30.1675 54.7551 29.6805C54.8514 29.1935 55.0887 28.7462 55.4371 28.3952C55.7854 28.0443 56.2291 27.8054 56.7121 27.7088C57.1951 27.6122 57.6956 27.6623 58.1503 27.8526C58.6051 28.043 58.9937 28.3651 59.2669 28.7782C59.5402 29.1913 59.6858 29.6769 59.6855 30.1735C59.6853 30.5032 59.6208 30.8296 59.4956 31.1341C59.3704 31.4386 59.1869 31.7152 58.9557 31.9482C58.7244 32.1812 58.4499 32.3659 58.1479 32.4919C57.8458 32.6178 57.5222 32.6825 57.1953 32.6823Z" fill="#EE851F"/>
<path d="M52.0136 34.3739L47.9682 28.5476C47.6909 28.1477 47.2866 27.855 46.8222 27.7179C46.3577 27.5809 45.8608 27.6076 45.4135 27.7937C44.9662 27.9798 44.595 28.3142 44.3615 28.7416C44.1279 29.1691 44.0457 29.6641 44.1286 30.1449L48.3534 36.5884L49.8587 38.7562L49.8464 46.3406C49.8441 46.6226 49.8968 46.9022 50.0016 47.1636C50.1064 47.425 50.2612 47.6629 50.4571 47.864C50.6531 48.0651 50.8865 48.2251 51.1438 48.3352C51.4011 48.4453 51.6774 48.5032 51.957 48.5056C52.2365 48.508 52.5137 48.4548 52.7729 48.3491C53.032 48.2434 53.268 48.0873 53.4673 47.8896C53.6666 47.6919 53.8254 47.4566 53.9346 47.197C54.0437 46.9375 54.1011 46.6587 54.1034 46.3769L54.1157 37.5103" fill="white"/>
</g>
<defs>
<filter id="filter0_d" x="0" y="0.282227" width="85" height="95.3528" filterUnits="userSpaceOnUse" color-interpolation-filters="sRGB">
<feFlood flood-opacity="0" result="BackgroundImageFix"/>
<feColorMatrix in="SourceAlpha" type="matrix" values="0 0 0 0 0 0 0 0 0 0 0 0 0 0 0 0 0 0 127 0"/>
<feOffset dy="4"/>
<feGaussianBlur stdDeviation="10"/>
<feColorMatrix type="matrix" values="0 0 0 0 0 0 0 0 0 0 0 0 0 0 0 0 0 0 0.29 0"/>
<feBlend mode="normal" in2="BackgroundImageFix" result="effect1_dropShadow"/>
<feBlend mode="normal" in="SourceGraphic" in2="effect1_dropShadow" result="shape"/>
</filter>
</defs>
</svg>
