<svg width="47" height="47" viewBox="0 0 47 47" fill="none" xmlns="http://www.w3.org/2000/svg">
<g clip-path="url(#clip0)">
<path d="M4.96857 15.3303L4.96927 15.3269C4.97591 15.2951 4.98427 15.2639 4.99343 15.2331C4.99596 15.2246 4.99885 15.2164 5.00153 15.208C5.00935 15.1839 5.01786 15.1603 5.02714 15.137C5.03061 15.1282 5.03407 15.1195 5.03774 15.1108C5.04985 15.0826 5.06273 15.0548 5.07699 15.0278C5.0784 15.0251 5.07968 15.0224 5.08109 15.0197C5.09594 14.9921 5.1121 14.9654 5.12907 14.9392C5.13551 14.9292 5.14236 14.9195 5.14916 14.9096C5.1613 14.8921 5.17399 14.8749 5.18714 14.8581C5.19477 14.8483 5.2022 14.8384 5.21011 14.8289C5.22951 14.8056 5.24969 14.7831 5.27087 14.7613C5.27879 14.7533 5.28721 14.7457 5.29539 14.7378C5.31165 14.7221 5.32828 14.7069 5.34542 14.6923C5.35459 14.6845 5.36375 14.6767 5.37319 14.6691C5.39777 14.6494 5.4229 14.6304 5.44914 14.6128C5.45121 14.6114 5.45322 14.61 5.4553 14.6086C5.48331 14.5899 5.51253 14.5729 5.54229 14.5567C5.54598 14.5547 5.54929 14.5522 5.55304 14.5503L7.79029 13.3652L8.80421 8.5011C9.10419 7.06199 10.5191 6.13524 11.9582 6.43523L18.3544 7.76853L24.3985 4.56647C26.1788 3.62353 28.3817 4.08273 29.6368 5.6584L33.8982 11.0086L40.2944 12.3419C41.7335 12.6419 42.6603 14.0567 42.3603 15.4958L41.3464 20.3599L42.9238 22.3405C42.9264 22.3437 42.9285 22.3473 42.9311 22.3506C42.9519 22.3774 42.9719 22.4046 42.9901 22.4329C42.9915 22.435 42.9927 22.4371 42.9941 22.4392C43.011 22.4659 43.0265 22.4934 43.0412 22.5212C43.0468 22.5319 43.0521 22.5427 43.0574 22.5536C43.0672 22.5739 43.0764 22.5945 43.0851 22.6153C43.0894 22.6258 43.0941 22.6361 43.0981 22.6466C43.1089 22.6749 43.1184 22.7037 43.1269 22.7328C43.1304 22.7448 43.1332 22.7568 43.1362 22.7688C43.1416 22.7895 43.1463 22.8103 43.1505 22.8312C43.1528 22.8429 43.1552 22.8546 43.1571 22.8664C43.1622 22.8972 43.1664 22.9281 43.1689 22.9593C43.1691 22.9623 43.1692 22.9653 43.1694 22.9684C43.1717 22.9988 43.1724 23.0295 43.1722 23.0602C43.1721 23.0696 43.1718 23.079 43.1715 23.0884C43.1707 23.1134 43.169 23.1385 43.1666 23.1637C43.1657 23.1725 43.165 23.1812 43.164 23.1899C43.16 23.2217 43.1552 23.2536 43.1486 23.2855L43.1479 23.2888L43.1478 23.2894L39.2007 42.2245C38.9564 43.3966 38.2409 44.3514 37.2939 44.9346C37.2668 44.9524 37.2396 44.9699 37.2114 44.9851C36.3468 45.4907 35.2999 45.6908 34.2445 45.4708L4.26779 39.2221C3.21234 39.0021 2.33248 38.4003 1.74188 37.5912C1.72229 37.5661 1.7045 37.5395 1.68685 37.5125C1.05163 36.5995 0.777059 35.4381 1.02141 34.2659L4.96845 15.3309C4.96848 15.3307 4.96852 15.3305 4.96857 15.3303ZM39.8281 14.579L11.4919 8.67222C11.2863 8.62937 11.0842 8.76176 11.0413 8.96735L9.22759 17.6682L9.75104 18.3254L20.2685 31.5304C20.839 32.2466 21.8405 32.4553 22.6496 32.0267L37.5671 24.1238L38.3095 23.7304L40.1232 15.0295C40.1661 14.8239 40.0337 14.6218 39.8281 14.579ZM36.9637 41.7582L40.4151 25.2009L39.8507 25.4999C39.8504 25.5001 39.85 25.5003 39.8496 25.5005L27.0382 32.2877L36.715 42.3777C36.8309 42.1925 36.9165 41.9842 36.9637 41.7582ZM24.9386 33.4L23.7194 34.0459C21.9392 34.989 19.7362 34.5297 18.4811 32.954L17.6215 31.8747L5.1604 37.074L34.2846 43.145L24.9386 33.4ZM16.1411 30.0162L7.10856 18.6755C7.10831 18.6752 7.10807 18.6749 7.10782 18.6746L6.70994 18.175L3.25854 34.7323C3.21143 34.9583 3.20673 35.1835 3.23897 35.3996L16.1411 30.0162ZM27.8494 7.08218C27.2788 6.36592 26.2774 6.15716 25.4682 6.58583L21.8574 8.49874L30.3951 10.2784L27.8494 7.08218Z" fill="#EE851F"/>
<path d="M33.934 18.4054C33.8052 19.0231 33.2 19.4195 32.5823 19.2908L21.9935 17.0835C21.3757 16.9548 20.9793 16.3496 21.1081 15.7318C21.2369 15.1141 21.842 14.7177 22.4598 14.8465L33.0486 17.0537C33.6663 17.1825 34.0627 17.7877 33.934 18.4054Z" fill="#EE851F"/>
<path d="M31.6496 23.7649L15.319 20.3608C14.7979 20.2521 14.4357 19.8042 14.412 19.296C14.4076 19.2017 14.4135 19.1057 14.4337 19.0091C14.5624 18.3913 15.1676 17.9949 15.7853 18.1237L32.116 21.5278C32.7337 21.6566 33.1301 22.2618 33.0013 22.8795C32.9812 22.9762 32.9482 23.0666 32.9065 23.1512C32.6817 23.6077 32.1707 23.8735 31.6496 23.7649Z" fill="#EE851F"/>
</g>
<defs>
<clipPath id="clip0">
<rect width="39" height="39" fill="white" transform="matrix(-0.978957 -0.204065 -0.204065 0.978957 46.3044 8.146)"/>
</clipPath>
</defs>
</svg>
