<svg width="25" height="44" viewBox="0 0 25 44" fill="none" xmlns="http://www.w3.org/2000/svg">
<path d="M1.92195 27.0448L14.338 41.311C16.756 44.0929 20.6981 44.0929 23.1161 41.311C24.2894 39.9664 24.9351 38.1724 24.9351 36.2679C24.9351 34.3634 24.2894 32.5694 23.1161 31.2248L15.0891 22.0017L23.1161 12.7785C24.2894 11.4304 24.9351 9.63997 24.9351 7.73542C24.9351 5.83088 24.2894 4.04047 23.1161 2.69231C21.9428 1.34415 20.3846 0.602298 18.727 0.602298C17.0695 0.602298 15.5113 1.34415 14.338 2.69231L1.92195 16.9585C0.748636 18.3031 0.103 20.0971 0.103 22.0017C0.103 23.9062 0.748636 25.7002 1.92195 27.0448ZM4.11648 19.4801L16.5325 5.21386C17.7089 3.8657 19.7452 3.8657 20.9216 5.21386C22.1321 6.60482 22.1321 8.86602 20.9216 10.257L10.7001 22.0017L20.9216 33.7463C21.5082 34.4204 21.8311 35.3156 21.8311 36.2679C21.8311 37.2202 21.5082 38.1154 20.9216 38.7895C20.3163 39.4849 19.5217 39.8345 18.727 39.8345C17.9324 39.8345 17.1378 39.4849 16.5325 38.793L4.11648 24.5268C3.52982 23.8491 3.20701 22.9539 3.20701 22.0017C3.20701 21.0494 3.52983 20.1542 4.11648 19.4801Z" fill="#EE851F"/>
</svg>
