<svg width="32" height="32" viewBox="0 0 32 32" fill="none" xmlns="http://www.w3.org/2000/svg">
<path d="M21.25 16H24.75C24.75 11.17 20.83 7.25 16 7.25V10.75C18.905 10.75 21.25 13.095 21.25 16ZM28.25 16H31.75C31.75 7.3025 24.6975 0.25 16 0.25V3.75C22.7725 3.75 28.25 9.2275 28.25 16ZM30 22.125C27.8125 22.125 25.7125 21.775 23.7525 21.1275C23.5775 21.075 23.385 21.04 23.21 21.04C22.755 21.04 22.3175 21.215 21.9675 21.5475L18.1175 25.3975C13.165 22.8775 9.105 18.835 6.585 13.865L10.435 9.9975C10.925 9.5425 11.065 8.86 10.8725 8.2475C10.225 6.2875 9.875 4.1875 9.875 2C9.875 1.0375 9.0875 0.25 8.125 0.25H2C1.0375 0.25 0.25 1.0375 0.25 2C0.25 18.4325 13.5675 31.75 30 31.75C30.9625 31.75 31.75 30.9625 31.75 30V23.875C31.75 22.9125 30.9625 22.125 30 22.125ZM3.8025 3.75H6.4275C6.55 5.29 6.8125 6.8125 7.215 8.265L5.115 10.3825C4.415 8.265 3.96 6.06 3.8025 3.75ZM28.25 28.1975C25.94 28.04 23.7 27.585 21.6 26.8675L23.7 24.7675C25.1875 25.1875 26.71 25.45 28.25 25.555V28.1975Z" fill="#EE851F"/>
</svg>
