<svg width="42" height="42" viewBox="0 0 42 42" fill="none" xmlns="http://www.w3.org/2000/svg">
<circle cx="20.75" cy="20.75" r="19.75" stroke="white" stroke-width="2"/>
<path d="M23.75 21.3137H25.75C25.75 18.5537 23.51 16.3137 20.75 16.3137V18.3137C22.41 18.3137 23.75 19.6537 23.75 21.3137ZM27.75 21.3137H29.75C29.75 16.3437 25.72 12.3137 20.75 12.3137V14.3137C24.62 14.3137 27.75 17.4437 27.75 21.3137ZM28.75 24.8137C27.5 24.8137 26.3 24.6137 25.18 24.2437C25.08 24.2137 24.97 24.1937 24.87 24.1937C24.61 24.1937 24.36 24.2937 24.16 24.4837L21.96 26.6837C19.13 25.2437 16.81 22.9337 15.37 20.0937L17.57 17.8837C17.85 17.6237 17.93 17.2337 17.82 16.8837C17.45 15.7637 17.25 14.5637 17.25 13.3137C17.25 12.7637 16.8 12.3137 16.25 12.3137H12.75C12.2 12.3137 11.75 12.7637 11.75 13.3137C11.75 22.7037 19.36 30.3137 28.75 30.3137C29.3 30.3137 29.75 29.8637 29.75 29.3137V25.8137C29.75 25.2637 29.3 24.8137 28.75 24.8137ZM13.78 14.3137H15.28C15.35 15.1937 15.5 16.0637 15.73 16.8937L14.53 18.1037C14.13 16.8937 13.87 15.6337 13.78 14.3137ZM27.75 28.2837C26.43 28.1937 25.15 27.9337 23.95 27.5237L25.15 26.3237C26 26.5637 26.87 26.7137 27.75 26.7737V28.2837Z" fill="white"/>
</svg>
