<svg width="37" height="36" viewBox="0 0 37 36" fill="none" xmlns="http://www.w3.org/2000/svg">
<g clip-path="url(#clip0)">
<path d="M33.4138 25.2402C32.9031 24.9597 32.2619 25.1463 31.9816 25.6567C31.7011 26.1673 31.8876 26.8085 32.3981 27.0889C33.6544 27.7791 34.375 28.5442 34.375 29.1882C34.375 29.9757 33.2591 31.1964 30.1272 32.2604C27.0331 33.3117 22.8982 33.8906 18.4844 33.8906C14.0705 33.8906 9.93564 33.3117 6.84154 32.2604C3.70961 31.1964 2.59375 29.9757 2.59375 29.1882C2.59375 28.5442 3.31431 27.7791 4.57066 27.0888C5.0812 26.8084 5.26766 26.1672 4.98719 25.6567C4.70671 25.1462 4.06567 24.9596 3.55499 25.2401C2.15423 26.0097 0.484375 27.3193 0.484375 29.1882C0.484375 30.6207 1.46959 32.6631 6.16295 34.2577C9.46989 35.3812 13.8457 36 18.4844 36C23.123 36 27.4989 35.3812 30.8058 34.2577C35.4992 32.6631 36.4844 30.6207 36.4844 29.1882C36.4844 27.3193 34.8145 26.0097 33.4138 25.2402Z" fill="#EE851F"/>
<path d="M10.5217 30.7357C12.6627 31.3405 15.4906 31.6737 18.4845 31.6737C21.4783 31.6737 24.3062 31.3406 26.4472 30.7357C29.0666 29.9958 30.3947 28.9247 30.3947 27.5523C30.3947 26.1799 29.0666 25.1089 26.4472 24.369C25.8657 24.2047 25.2333 24.0607 24.561 23.9377C24.1959 24.5686 23.8133 25.2179 23.4133 25.886C24.1575 25.9976 24.8562 26.1345 25.4907 26.2962C27.4184 26.7872 28.1226 27.3399 28.2674 27.5524C28.1225 27.7649 27.4184 28.3177 25.4907 28.8086C23.6662 29.2733 21.3187 29.5383 18.8464 29.562C18.7266 29.5709 18.606 29.5759 18.4845 29.5759C18.3629 29.5759 18.2423 29.5709 18.1225 29.562C15.6501 29.5383 13.3026 29.2733 11.4781 28.8086C9.55041 28.3177 8.84623 27.7649 8.70145 27.5524C8.84623 27.3399 9.55048 26.7872 11.4782 26.2962C12.1127 26.1346 12.8114 25.9976 13.5556 25.886C13.1556 25.218 12.773 24.5685 12.4079 23.9377C11.7356 24.0607 11.1031 24.2047 10.5217 24.369C7.90235 25.1089 6.57422 26.1799 6.57422 27.5523C6.57422 28.9247 7.90235 29.9957 10.5217 30.7357Z" fill="#EE851F"/>
<path d="M18.4846 27.4665C19.4234 27.4665 20.2763 26.988 20.7661 26.1867C24.198 20.5718 28.2889 13.1716 28.2889 9.8043C28.2889 4.39819 23.8907 0 18.4846 0C13.0784 0 8.68018 4.39819 8.68018 9.8043C8.68018 13.1716 12.7712 20.5718 16.2031 26.1867C16.6928 26.988 17.5457 27.4665 18.4846 27.4665ZM14.5437 9.13113C14.5437 6.95827 16.3116 5.19047 18.4846 5.19047C20.6575 5.19047 22.4254 6.95827 22.4254 9.13113C22.4254 11.3041 20.6575 13.0719 18.4846 13.0719C16.3116 13.0719 14.5437 11.3041 14.5437 9.13113Z" fill="#EE851F"/>
</g>
<defs>
<clipPath id="clip0">
<rect width="36" height="36" fill="white" transform="translate(0.484375)"/>
</clipPath>
</defs>
</svg>
