<svg width="26" height="44" viewBox="0 0 26 44" fill="none" xmlns="http://www.w3.org/2000/svg">
<path d="M23.8905 16.9552L11.4745 2.68898C9.05649 -0.0929413 5.11441 -0.0929413 2.69639 2.68898C1.52307 4.03358 0.877441 5.82756 0.877441 7.7321C0.877441 9.63665 1.52307 11.4306 2.69639 12.7752L10.7233 21.9984L2.69639 31.2215C1.52307 32.5697 0.877441 34.3601 0.877441 36.2646C0.877441 38.1692 1.52307 39.9596 2.69639 41.3078C3.8697 42.6559 5.42791 43.3978 7.08545 43.3978C8.74299 43.3978 10.3012 42.6559 11.4745 41.3078L23.8905 27.0415C25.0638 25.6969 25.7095 23.9029 25.7095 21.9984C25.7095 20.0938 25.0638 18.2998 23.8905 16.9552ZM21.696 24.5199L9.27998 38.7862C8.10356 40.1344 6.06734 40.1344 4.89092 38.7862C3.68036 37.3952 3.68036 35.134 4.89092 33.7431L15.1124 21.9984L4.89092 10.2537C4.30426 9.57959 3.98145 8.68438 3.98145 7.7321C3.98145 6.77983 4.30426 5.88462 4.89092 5.21054C5.4962 4.51506 6.29082 4.16554 7.08545 4.16554C7.88007 4.16554 8.6747 4.51506 9.27998 5.20698L21.696 19.4732C22.2827 20.1509 22.6055 21.0461 22.6055 21.9984C22.6055 22.9506 22.2827 23.8458 21.696 24.5199Z" fill="#EE851F"/>
</svg>
