<svg width="29" height="227" viewBox="0 0 29 227" fill="none" xmlns="http://www.w3.org/2000/svg">
<path d="M15.5 220C15.5 220.552 15.0523 221 14.5 221C13.9477 221 13.5 220.552 13.5 220L15.5 220ZM13.5 206C13.5 205.448 13.9477 205 14.5 205C15.0523 205 15.5 205.448 15.5 206L13.5 206ZM13.5 220L13.5 206L15.5 206L15.5 220L13.5 220Z" fill="#CCD2E3"/>
<path d="M14.7034 224.715L18.5964 219.265C18.9746 218.735 18.5961 218 17.9454 218L11.0546 218C10.4039 218 10.0254 218.735 10.4036 219.265L14.2966 224.715C14.3963 224.855 14.6037 224.855 14.7034 224.715Z" fill="#CCD2E3"/>
<path d="M20.105 181.53C20.105 182.22 19.985 182.84 19.745 183.39C19.495 183.93 19.155 184.355 18.725 184.665C18.285 184.975 17.78 185.135 17.21 185.145L17.21 183.69C17.7 183.64 18.115 183.44 18.455 183.09C18.785 182.73 18.95 182.21 18.95 181.53C18.95 180.88 18.79 180.37 18.47 180C18.14 179.62 17.72 179.43 17.21 179.43C16.81 179.43 16.485 179.54 16.235 179.76C15.985 179.98 15.795 180.255 15.665 180.585C15.535 180.915 15.395 181.36 15.245 181.92C15.065 182.61 14.885 183.165 14.705 183.585C14.525 183.995 14.245 184.35 13.865 184.65C13.475 184.94 12.955 185.085 12.305 185.085C11.735 185.085 11.23 184.94 10.79 184.65C10.35 184.36 10.01 183.955 9.77 183.435C9.53 182.905 9.41 182.3 9.41 181.62C9.41 180.64 9.655 179.84 10.145 179.22C10.635 178.59 11.285 178.235 12.095 178.155L12.095 179.655C11.695 179.705 11.345 179.915 11.045 180.285C10.735 180.655 10.58 181.145 10.58 181.755C10.58 182.325 10.73 182.79 11.03 183.15C11.32 183.51 11.73 183.69 12.26 183.69C12.64 183.69 12.95 183.585 13.19 183.375C13.43 183.155 13.615 182.89 13.745 182.58C13.865 182.26 14.005 181.815 14.165 181.245C14.355 180.555 14.545 180 14.735 179.58C14.915 179.16 15.2 178.8 15.59 178.5C15.97 178.2 16.49 178.05 17.15 178.05C17.66 178.05 18.14 178.185 18.59 178.455C19.04 178.725 19.405 179.125 19.685 179.655C19.965 180.185 20.105 180.81 20.105 181.53ZM14.765 168.551C13.745 168.551 12.83 168.321 12.02 167.861C11.2 167.401 10.56 166.776 10.1 165.986C9.64 165.186 9.41 164.301 9.41 163.331C9.41 162.191 9.685 161.196 10.235 160.346C10.785 159.496 11.565 158.876 12.575 158.486L12.575 160.121C11.945 160.411 11.46 160.831 11.12 161.381C10.78 161.921 10.61 162.571 10.61 163.331C10.61 164.061 10.78 164.716 11.12 165.296C11.46 165.876 11.945 166.331 12.575 166.661C13.195 166.991 13.925 167.156 14.765 167.156C15.595 167.156 16.325 166.991 16.955 166.661C17.575 166.331 18.055 165.876 18.395 165.296C18.735 164.716 18.905 164.061 18.905 163.331C18.905 162.571 18.74 161.921 18.41 161.381C18.07 160.831 17.585 160.411 16.955 160.121L16.955 158.486C17.955 158.876 18.73 159.496 19.28 160.346C19.82 161.196 20.09 162.191 20.09 163.331C20.09 164.301 19.865 165.186 19.415 165.986C18.955 166.776 18.32 167.401 17.51 167.861C16.7 168.321 15.785 168.551 14.765 168.551ZM20 142.949L15.725 145.439L15.725 147.089L20 147.089L20 148.454L9.545 148.454L9.545 145.079C9.545 144.289 9.68 143.624 9.95 143.084C10.22 142.534 10.585 142.124 11.045 141.854C11.505 141.584 12.03 141.449 12.62 141.449C13.34 141.449 13.975 141.659 14.525 142.079C15.075 142.489 15.44 143.109 15.62 143.939L20 141.314L20 142.949ZM14.63 147.089L14.63 145.079C14.63 144.339 14.45 143.784 14.09 143.414C13.72 143.044 13.23 142.859 12.62 142.859C12 142.859 11.52 143.044 11.18 143.414C10.84 143.774 10.67 144.329 10.67 145.079L10.67 147.089L14.63 147.089ZM20.105 126.588C20.105 127.558 19.88 128.443 19.43 129.243C18.97 130.043 18.335 130.678 17.525 131.148C16.705 131.608 15.785 131.838 14.765 131.838C13.745 131.838 12.83 131.608 12.02 131.148C11.2 130.678 10.565 130.043 10.115 129.243C9.655 128.443 9.425 127.558 9.425 126.588C9.425 125.608 9.655 124.718 10.115 123.918C10.565 123.118 11.195 122.488 12.005 122.028C12.815 121.568 13.735 121.338 14.765 121.338C15.795 121.338 16.715 121.568 17.525 122.028C18.335 122.488 18.97 123.118 19.43 123.918C19.88 124.718 20.105 125.608 20.105 126.588ZM18.92 126.588C18.92 125.858 18.75 125.203 18.41 124.623C18.07 124.033 17.585 123.573 16.955 123.243C16.325 122.903 15.595 122.733 14.765 122.733C13.925 122.733 13.195 122.903 12.575 123.243C11.945 123.573 11.46 124.028 11.12 124.608C10.78 125.188 10.61 125.848 10.61 126.588C10.61 127.328 10.78 127.988 11.12 128.568C11.46 129.148 11.945 129.608 12.575 129.948C13.195 130.278 13.925 130.443 14.765 130.443C15.595 130.443 16.325 130.278 16.955 129.948C17.585 129.608 18.07 129.148 18.41 128.568C18.75 127.978 18.92 127.318 18.92 126.588ZM18.89 110.171L18.89 106.511L20 106.511L20 111.536L9.545 111.536L9.545 110.171L18.89 110.171ZM18.89 95.6968L18.89 92.0368L20 92.0368L20 97.0618L9.545 97.0618L9.545 95.6968L18.89 95.6968ZM9.54499 67.3332C9.54499 66.1932 9.75999 65.2082 10.19 64.3782C10.61 63.5382 11.215 62.8982 12.005 62.4582C12.795 62.0082 13.725 61.7832 14.795 61.7832C15.865 61.7832 16.795 62.0082 17.585 62.4582C18.365 62.8982 18.965 63.5382 19.385 64.3782C19.795 65.2082 20 66.1932 20 67.3332L20 70.5882L9.54499 70.5882L9.54499 67.3332ZM18.875 67.3332C18.875 65.9832 18.52 64.9532 17.81 64.2432C17.09 63.5332 16.085 63.1782 14.795 63.1782C13.495 63.1782 12.48 63.5382 11.75 64.2582C11.02 64.9682 10.655 65.9932 10.655 67.3332L10.655 69.2232L18.875 69.2232L18.875 67.3332ZM20.105 47.2427C20.105 48.2127 19.88 49.0977 19.43 49.8977C18.97 50.6977 18.335 51.3327 17.525 51.8027C16.705 52.2627 15.785 52.4927 14.765 52.4927C13.745 52.4927 12.83 52.2627 12.02 51.8027C11.2 51.3327 10.565 50.6977 10.115 49.8977C9.65499 49.0977 9.42499 48.2127 9.42499 47.2427C9.42499 46.2627 9.65499 45.3727 10.115 44.5727C10.565 43.7727 11.195 43.1427 12.005 42.6827C12.815 42.2227 13.735 41.9927 14.765 41.9927C15.795 41.9927 16.715 42.2227 17.525 42.6827C18.335 43.1427 18.97 43.7727 19.43 44.5727C19.88 45.3727 20.105 46.2627 20.105 47.2427ZM18.92 47.2427C18.92 46.5127 18.75 45.8577 18.41 45.2777C18.07 44.6877 17.585 44.2277 16.955 43.8977C16.325 43.5577 15.595 43.3877 14.765 43.3877C13.925 43.3877 13.195 43.5577 12.575 43.8977C11.945 44.2277 11.46 44.6827 11.12 45.2627C10.78 45.8427 10.61 46.5027 10.61 47.2427C10.61 47.9827 10.78 48.6427 11.12 49.2227C11.46 49.8027 11.945 50.2627 12.575 50.6027C13.195 50.9327 13.925 51.0977 14.765 51.0977C15.595 51.0977 16.325 50.9327 16.955 50.6027C17.585 50.2627 18.07 49.8027 18.41 49.2227C18.75 48.6327 18.92 47.9727 18.92 47.2427ZM9.54499 19.0507L20 22.0807L20 23.6107L11.585 26.0407L20 28.5607L20.015 30.0757L9.54499 33.0007L9.54499 31.5457L18.41 29.2657L9.54499 26.7457L9.54499 25.2157L18.38 22.8157L9.54499 20.5207L9.54499 19.0507ZM20 1.33691L20 2.70191L11.675 8.19191L20 8.19191L20 9.55691L9.52999 9.55691L9.52999 8.19191L17.84 2.70191L9.52999 2.70191L9.52999 1.33691L20 1.33691Z" fill="#C4C4C4"/>
</svg>
