<svg width="26" height="25" viewBox="0 0 26 25" fill="none" xmlns="http://www.w3.org/2000/svg">
<path d="M7.74609 20C6.37109 20 5.24609 21.125 5.24609 22.5C5.24609 23.875 6.37109 25 7.74609 25C9.12109 25 10.2461 23.875 10.2461 22.5C10.2461 21.125 9.12109 20 7.74609 20ZM0.246094 0V2.5H2.74609L7.24609 12L5.49609 15C5.37109 15.375 5.24609 15.875 5.24609 16.25C5.24609 17.625 6.37109 18.75 7.74609 18.75H22.7461V16.25H8.24609C8.12109 16.25 7.99609 16.125 7.99609 16V15.875L9.12109 13.75H18.3711C19.3711 13.75 20.1211 13.25 20.4961 12.5L24.9961 4.375C25.2461 4.125 25.2461 4 25.2461 3.75C25.2461 3 24.7461 2.5 23.9961 2.5H5.49609L4.37109 0H0.246094ZM20.2461 20C18.8711 20 17.7461 21.125 17.7461 22.5C17.7461 23.875 18.8711 25 20.2461 25C21.6211 25 22.7461 23.875 22.7461 22.5C22.7461 21.125 21.6211 20 20.2461 20Z" fill="white"/>
</svg>
