<svg width="22" height="20" viewBox="0 0 22 20" fill="none" xmlns="http://www.w3.org/2000/svg">
<path d="M20.956 0.866821C20.0084 0.35656 18.9514 1.34063 18.3318 1.92379C16.9104 3.30878 15.7077 4.91246 14.3591 6.37034C12.8647 7.97402 11.4797 9.57769 9.94895 11.145C9.07422 12.0197 8.12659 12.9673 7.54344 14.0608C6.23134 12.785 5.10148 11.4001 3.64359 10.2702C2.58662 9.46841 0.83716 8.88526 0.873607 10.817C0.946502 13.3319 3.16978 16.029 4.8099 17.7419C5.5024 18.4709 6.41358 19.2362 7.47054 19.2727C8.7462 19.3456 10.0583 17.8148 10.8237 16.9765C12.1723 15.5186 13.2657 13.8785 14.5048 12.3842C16.1085 10.416 17.7486 8.48428 19.3159 6.47968C20.2999 5.24048 23.398 2.17886 20.956 0.866821ZM2.47722 10.6712C2.44078 10.6712 2.40433 10.6712 2.33143 10.7076C2.18565 10.6712 2.0763 10.6347 1.93052 10.5618C2.03986 10.4889 2.22209 10.5253 2.47722 10.6712Z" fill="#EE851F"/>
</svg>
