<svg width="19" height="18" viewBox="0 0 19 18" fill="none" xmlns="http://www.w3.org/2000/svg">
<g clip-path="url(#clip0)">
<path d="M9.43079 0C4.46819 0 0.430786 4.03745 0.430786 9.00006C0.430786 13.9627 4.46819 18 9.43079 18C14.3934 18 18.4308 13.9627 18.4308 9.00006C18.4308 4.03745 14.3934 0 9.43079 0ZM9.43079 16.3636C5.37042 16.3636 2.06715 13.0604 2.06715 9.00006C2.06715 4.93975 5.37042 1.63636 9.43079 1.63636C13.4911 1.63636 16.7944 4.93975 16.7944 9.00006C16.7944 13.0604 13.4911 16.3636 9.43079 16.3636Z" fill="white"/>
<path d="M9.43069 3.81812C8.82927 3.81812 8.34 4.30772 8.34 4.90952C8.34 5.51077 8.82927 5.99993 9.43069 5.99993C10.0321 5.99993 10.5214 5.51077 10.5214 4.90952C10.5214 4.30772 10.0321 3.81812 9.43069 3.81812Z" fill="white"/>
<path d="M9.43078 7.63647C8.97893 7.63647 8.6126 8.0028 8.6126 8.45466V13.3637C8.6126 13.8156 8.97893 14.1819 9.43078 14.1819C9.88264 14.1819 10.249 13.8156 10.249 13.3637V8.45466C10.249 8.0028 9.88264 7.63647 9.43078 7.63647Z" fill="white"/>
</g>
<defs>
<clipPath id="clip0">
<rect width="18" height="18" fill="white" transform="translate(0.430786)"/>
</clipPath>
</defs>
</svg>
