<svg width="231" height="27" viewBox="0 0 231 27" fill="none" xmlns="http://www.w3.org/2000/svg">
<path d="M111.563 1.53491V26.64" stroke="#EE851F" stroke-width="2"/>
<path d="M157.461 1.548L150.189 26.64H146.517L140.685 6.444L134.637 26.64L131.001 26.676L123.981 1.548H127.473L132.945 22.824L138.993 1.548H142.665L148.425 22.752L153.933 1.548H157.461ZM169.65 26.964C167.802 26.964 166.122 26.544 164.61 25.704C163.122 24.864 161.946 23.676 161.082 22.14C160.242 20.58 159.822 18.78 159.822 16.74C159.822 14.724 160.254 12.948 161.118 11.412C162.006 9.852 163.206 8.664 164.718 7.848C166.23 7.008 167.922 6.588 169.794 6.588C171.666 6.588 173.358 7.008 174.87 7.848C176.382 8.664 177.57 9.84 178.434 11.376C179.322 12.912 179.766 14.7 179.766 16.74C179.766 18.78 179.31 20.58 178.398 22.14C177.51 23.676 176.298 24.864 174.762 25.704C173.226 26.544 171.522 26.964 169.65 26.964ZM169.65 24.084C170.826 24.084 171.93 23.808 172.962 23.256C173.994 22.704 174.822 21.876 175.446 20.772C176.094 19.668 176.418 18.324 176.418 16.74C176.418 15.156 176.106 13.812 175.482 12.708C174.858 11.604 174.042 10.788 173.034 10.26C172.026 9.708 170.934 9.432 169.758 9.432C168.558 9.432 167.454 9.708 166.446 10.26C165.462 10.788 164.67 11.604 164.07 12.708C163.47 13.812 163.17 15.156 163.17 16.74C163.17 18.348 163.458 19.704 164.034 20.808C164.634 21.912 165.426 22.74 166.41 23.292C167.394 23.82 168.474 24.084 169.65 24.084ZM187.35 10.116C187.926 8.988 188.742 8.112 189.798 7.488C190.878 6.864 192.186 6.552 193.722 6.552V9.936H192.858C189.186 9.936 187.35 11.928 187.35 15.912V26.64H184.074V6.912H187.35V10.116ZM208.519 26.64L200.779 17.928V26.64H197.503V0H200.779V15.66L208.375 6.912H212.947L203.659 16.74L212.983 26.64H208.519ZM223.015 26.964C221.503 26.964 220.147 26.712 218.947 26.208C217.747 25.68 216.799 24.96 216.103 24.048C215.407 23.112 215.023 22.044 214.951 20.844H218.335C218.431 21.828 218.887 22.632 219.703 23.256C220.543 23.88 221.635 24.192 222.979 24.192C224.227 24.192 225.211 23.916 225.931 23.364C226.651 22.812 227.011 22.116 227.011 21.276C227.011 20.412 226.627 19.776 225.859 19.368C225.091 18.936 223.903 18.516 222.295 18.108C220.831 17.724 219.631 17.34 218.695 16.956C217.783 16.548 216.991 15.96 216.319 15.192C215.671 14.4 215.347 13.368 215.347 12.096C215.347 11.088 215.647 10.164 216.247 9.324C216.847 8.484 217.699 7.824 218.803 7.344C219.907 6.84 221.167 6.588 222.583 6.588C224.767 6.588 226.531 7.14 227.875 8.244C229.219 9.348 229.939 10.86 230.035 12.78H226.759C226.687 11.748 226.267 10.92 225.499 10.296C224.755 9.672 223.747 9.36 222.475 9.36C221.299 9.36 220.363 9.612 219.667 10.116C218.971 10.62 218.623 11.28 218.623 12.096C218.623 12.744 218.827 13.284 219.235 13.716C219.667 14.124 220.195 14.46 220.819 14.724C221.467 14.964 222.355 15.24 223.483 15.552C224.899 15.936 226.051 16.32 226.939 16.704C227.827 17.064 228.583 17.616 229.207 18.36C229.855 19.104 230.191 20.076 230.215 21.276C230.215 22.356 229.915 23.328 229.315 24.192C228.715 25.056 227.863 25.74 226.759 26.244C225.679 26.724 224.431 26.964 223.015 26.964Z" fill="white"/>
<path d="M19.9242 3.6658C20.0287 3.0621 19.9251 2.4406 19.6306 1.904C19.336 1.3674 18.8681 0.947604 18.304 0.713904C17.74 0.480304 17.1134 0.446804 16.5278 0.618804C15.9422 0.790904 15.4325 1.1583 15.0828 1.6605L9.98295 8.9763L4.88193 1.6605C4.53259 1.1578 4.02294 0.789905 3.43719 0.617505C2.85145 0.445105 2.22466 0.478604 1.66041 0.712304C1.09615 0.946104 0.628205 1.3662 0.333882 1.9032C0.0395592 2.4402 -0.0635222 3.062 0.0416739 3.6658C0.0150084 3.8174 0.00106888 3.971 0 4.125V23.8925C0 24.6073 0.282763 25.2929 0.786087 25.7983C1.28941 26.3038 1.97206 26.5878 2.68387 26.5878C3.39568 26.5878 4.07833 26.3038 4.58165 25.7983C5.08498 25.2929 5.36774 24.6073 5.36774 23.8925V11.7565L7.78489 15.2242C7.79204 15.235 7.80037 15.2446 7.80871 15.2553C7.85633 15.3211 7.90634 15.3857 7.96112 15.4479C7.97779 15.4658 7.99327 15.4861 8.00875 15.5053C8.07425 15.5762 8.14341 15.6437 8.21593 15.7073L8.2838 15.7612C8.335 15.8042 8.38739 15.8472 8.44336 15.8867L8.4636 15.8999L8.53504 15.9465C8.59696 15.986 8.66007 16.023 8.72437 16.0565C8.74342 16.0673 8.76128 16.0792 8.78152 16.0888C8.86528 16.1303 8.95113 16.1674 9.03872 16.2L9.08039 16.2167C9.1693 16.2489 9.25993 16.2761 9.35187 16.2981H9.36021C9.45524 16.3205 9.55144 16.3377 9.64836 16.3495H9.6948C9.78967 16.3604 9.88508 16.366 9.98057 16.3662C10.0765 16.366 10.1723 16.3604 10.2675 16.3495H10.314C10.4109 16.3376 10.5071 16.3204 10.6021 16.2981H10.6116C10.703 16.2772 10.7929 16.2504 10.8808 16.2179L10.9236 16.2012C11.0109 16.1688 11.0964 16.1317 11.1796 16.09C11.2011 16.0804 11.2189 16.0685 11.238 16.0577C11.3023 16.0242 11.3642 15.9872 11.4273 15.9477L11.4987 15.9011L11.519 15.8879C11.5749 15.8484 11.6273 15.8054 11.6797 15.7623C11.7023 15.7444 11.725 15.7277 11.7452 15.7085C11.8184 15.6452 11.888 15.5777 11.9536 15.5065C11.9689 15.4865 11.9852 15.4673 12.0024 15.4491C12.056 15.3869 12.1072 15.3223 12.1536 15.2565C12.1623 15.2468 12.1703 15.2364 12.1774 15.2254L14.5946 11.7577V23.8925C14.5946 24.2464 14.664 24.5969 14.7989 24.9239C14.9338 25.2509 15.1315 25.5481 15.3807 25.7983C15.6299 26.0486 15.9258 26.2471 16.2514 26.3826C16.577 26.5181 16.926 26.5878 17.2785 26.5878C17.6309 26.5878 17.9799 26.5181 18.3055 26.3826C18.6312 26.2471 18.927 26.0486 19.1762 25.7983C19.4255 25.5481 19.6232 25.2509 19.758 24.9239C19.8929 24.5969 19.9623 24.2464 19.9623 23.8925V4.1202C19.9627 3.9679 19.95 3.8159 19.9242 3.6658Z" fill="white"/>
<path d="M40.1961 6.67141C39.5753 6.67121 38.9685 6.48611 38.4524 6.13951C37.9364 5.79291 37.5343 5.30031 37.2969 4.72421C37.0596 4.14811 36.9978 3.51421 37.1192 2.90281C37.2407 2.29141 37.5399 1.72981 37.9792 1.28921C38.4184 0.848606 38.9779 0.548706 39.5869 0.427506C40.1959 0.306206 40.827 0.369006 41.4004 0.608006C41.9738 0.847006 42.4638 1.25141 42.8083 1.77C43.1529 2.2887 43.3365 2.89831 43.336 3.52171C43.3359 3.93561 43.2545 4.34541 43.0966 4.72771C42.9387 5.11001 42.7074 5.45731 42.4158 5.74981C42.1242 6.04231 41.7781 6.27421 41.3973 6.43241C41.0164 6.59051 40.6083 6.67171 40.1961 6.67141Z" fill="#EE851F"/>
<path d="M33.6625 8.79513L28.5615 1.48053C28.2118 0.978326 27.7021 0.610926 27.1165 0.438826C26.5308 0.266726 25.9043 0.300326 25.3402 0.533926C24.7762 0.767626 24.3082 1.18733 24.0137 1.72403C23.7191 2.26063 23.6156 2.88213 23.72 3.48583L29.0473 11.5753L30.9453 14.2969L30.9298 23.8189C30.9268 24.1728 30.9933 24.5239 31.1255 24.852C31.2576 25.1802 31.4528 25.479 31.6999 25.7314C31.947 25.9838 32.2412 26.1848 32.5657 26.323C32.8902 26.4612 33.2386 26.5339 33.5911 26.5369C33.9435 26.5399 34.2931 26.4731 34.6199 26.3404C34.9466 26.2077 35.2441 26.0117 35.4955 25.7635C35.7468 25.5153 35.947 25.2199 36.0846 24.894C36.2222 24.5682 36.2946 24.2183 36.2976 23.8643L36.313 12.7328" fill="white"/>
<path d="M67.6467 16.6991C67.0411 16.3247 66.3124 16.2068 65.6204 16.3714C64.9284 16.5359 64.3296 16.9694 63.9555 17.5768C63.138 18.9087 61.9101 19.9364 60.4582 20.5038C59.0063 21.0712 57.4097 21.1474 55.9108 20.7208C54.4119 20.2941 53.0925 19.388 52.153 18.1399C51.2135 16.8918 50.7052 15.3699 50.7052 13.8053C50.7052 12.2407 51.2135 10.7189 52.153 9.4708C53.0925 8.2227 54.4119 7.3165 55.9108 6.8899C57.4097 6.4632 59.0063 6.5394 60.4582 7.1068C61.9101 7.6742 63.138 8.7019 63.9555 10.0338C64.1386 10.3393 64.3803 10.6053 64.6664 10.8163C64.9526 11.0273 65.2776 11.1792 65.6227 11.2632C65.9678 11.3472 66.326 11.3616 66.6766 11.3056C67.0272 11.2495 67.3633 11.1242 67.6654 10.9368C67.9674 10.7494 68.2295 10.5037 68.4363 10.2139C68.6431 9.9241 68.7907 9.596 68.8703 9.2485C68.95 8.901 68.9602 8.5412 68.9004 8.1897C68.8406 7.8382 68.7119 7.5022 68.5219 7.201C67.0906 4.8705 64.9412 3.0725 62.4 2.08C59.8589 1.0875 57.0646 0.954701 54.4415 1.7018C51.8184 2.4488 49.5095 4.0349 47.8654 6.2193C46.2214 8.4037 45.3318 11.0671 45.3318 13.8053C45.3318 16.5435 46.2214 19.2069 47.8654 21.3913C49.5095 23.5757 51.8184 25.1618 54.4415 25.9089C57.0646 26.6559 59.8589 26.5231 62.4 25.5306C64.9412 24.5382 67.0906 22.7402 68.5219 20.4096C68.7072 20.1083 68.8315 19.7733 68.8878 19.4237C68.9441 19.0741 68.9312 18.7168 68.8499 18.3722C68.7687 18.0277 68.6206 17.7025 68.4141 17.4154C68.2076 17.1284 67.9469 16.8849 67.6467 16.6991Z" fill="white"/>
<path d="M85.4468 26.3289C82.9693 26.3289 80.5475 25.5911 78.4876 24.2088C76.4276 22.8266 74.8221 20.8619 73.874 18.5633C72.9259 16.2646 72.6778 13.7353 73.1612 11.2951C73.6445 8.85493 74.8375 6.61343 76.5894 4.85413C78.3412 3.09483 80.5732 1.89672 83.003 1.41132C85.4329 0.925925 87.9515 1.17513 90.2404 2.12723C92.5293 3.07933 94.4857 4.69172 95.8621 6.76042C97.2385 8.82912 97.9732 11.2612 97.9732 13.7492C97.9694 17.0844 96.6484 20.2819 94.3001 22.6402C91.9518 24.9985 88.7678 26.3251 85.4468 26.3289ZM85.4468 6.56143C84.0312 6.56143 82.6474 6.98292 81.4704 7.77282C80.2933 8.56262 79.376 9.68523 78.8342 10.9986C78.2925 12.312 78.1508 13.7572 78.4269 15.1515C78.7031 16.5458 79.3848 17.8266 80.3858 18.8318C81.3868 19.8371 82.6621 20.5216 84.0505 20.799C85.4389 21.0763 86.878 20.934 88.1858 20.3899C89.4937 19.8459 90.6115 18.9246 91.398 17.7426C92.1844 16.5606 92.6042 15.1709 92.6042 13.7492C92.602 11.8436 91.8472 10.0166 90.5054 8.66913C89.1636 7.32163 87.3444 6.56363 85.4468 6.56143Z" fill="white"/>
</svg>
