<svg width="23" height="31" viewBox="0 0 23 31" fill="none" xmlns="http://www.w3.org/2000/svg">
<path d="M11.5 0.125C17.4909 0.125 22.3649 4.99894 22.3649 10.9898C22.3649 18.4246 12.6419 29.3394 12.2279 29.8004C11.8391 30.2335 11.1602 30.2328 10.7721 29.8004C10.3581 29.3394 0.635141 18.4246 0.635141 10.9898C0.635258 4.99894 5.50915 0.125 11.5 0.125ZM11.5 16.4562C14.5142 16.4562 16.9663 14.004 16.9663 10.9898C16.9663 7.97562 14.5141 5.52348 11.5 5.52348C8.48588 5.52348 6.03374 7.97568 6.03374 10.9899C6.03374 14.004 8.48588 16.4562 11.5 16.4562Z" fill="#EE851F"/>
</svg>
