<svg width="64" height="46" viewBox="0 0 64 46" fill="none" xmlns="http://www.w3.org/2000/svg">
<path d="M50.6293 16.9757C50.5004 15.5822 50.599 11.7941 54.2279 6.52654C54.5024 6.12904 54.4526 5.59295 54.1117 5.25214C52.6322 3.77264 51.7162 2.83904 51.0737 2.18575C50.2289 1.32434 49.8432 0.931845 49.2787 0.420045C48.9018 0.0812444 48.3315 0.0753449 47.9506 0.407445C41.6254 5.91134 34.6 17.2843 35.6166 31.2179C36.2123 39.3995 42.1801 45.338 49.8061 45.338C57.6322 45.338 63.9994 38.9718 63.9994 31.1456C63.9994 23.5958 58.0737 17.4044 50.6293 16.9757ZM49.8061 43.338C43.2572 43.338 38.1293 38.1798 37.6108 31.0734C37.6108 31.0734 37.6108 31.0734 37.6108 31.0724C36.4672 15.4015 45.7826 5.22284 48.5971 2.52754C48.8715 2.79805 49.185 3.11634 49.6469 3.58704C50.2035 4.15345 50.9653 4.92884 52.1176 6.08514C47.7123 12.8722 48.5434 17.7081 48.9076 18.4015C49.0805 18.7306 49.435 18.9523 49.8061 18.9523C56.5297 18.9523 61.9994 24.422 61.9994 31.1456C61.9994 37.8683 56.5297 43.338 49.8061 43.338Z" fill="#EE851F"/>
<path d="M15.1137 16.9757C14.9838 15.5861 15.0795 11.8009 18.7123 6.52654C18.9858 6.12904 18.9369 5.59294 18.5961 5.25214C17.1195 3.77554 16.2045 2.84294 15.5629 2.18964C14.7153 1.32634 14.3285 0.932739 13.7641 0.420039C13.3871 0.081239 12.8168 0.0763389 12.436 0.406439C6.11077 5.91034 -0.915633 17.2814 0.0989671 31.2179V31.2189C0.696667 39.3995 6.66537 45.338 14.2914 45.338C22.1176 45.338 28.4848 38.9718 28.4848 31.1456C28.4848 23.5949 22.559 17.4025 15.1137 16.9757ZM14.2914 43.338C7.74357 43.338 2.61267 38.1798 2.09317 31.0724V31.0734C0.952567 15.3986 10.268 5.22184 13.0824 2.52754C13.3578 2.79804 13.6723 3.11834 14.1352 3.59004C14.6908 4.15644 15.4516 4.93084 16.602 6.08514C12.1967 12.8732 13.0278 17.7081 13.392 18.4005C13.5649 18.7296 13.9203 18.9523 14.2914 18.9523C21.0151 18.9523 26.4848 24.422 26.4848 31.1456C26.4848 37.8683 21.0151 43.338 14.2914 43.338Z" fill="#EE851F"/>
</svg>
